<mxfile host="app.diagrams.net" modified="2023-05-07T01:43:12.669Z" agent="Mozilla/5.0 (Macintosh; Intel Mac OS X 10_15_7) AppleWebKit/537.36 (KHTML, like Gecko) Chrome/112.0.0.0 Safari/537.36" etag="vQMaId2khJamcW-qbvOl" version="21.2.9" type="github">
  <diagram name="第 1 页" id="1Z5rrMbEHiVIjVTJ9VMw">
    <mxGraphModel dx="1915" dy="600" grid="1" gridSize="10" guides="1" tooltips="1" connect="1" arrows="1" fold="1" page="1" pageScale="1" pageWidth="827" pageHeight="1169" math="0" shadow="0">
      <root>
        <mxCell id="0" />
        <mxCell id="1" parent="0" />
        <mxCell id="ViMXjmIDIxy4mERvNpGP-1" value="" style="shape=image;verticalLabelPosition=bottom;labelBackgroundColor=default;verticalAlign=top;aspect=fixed;imageAspect=0;image=data:image/png,iVBORw0KGgoAAAANSUhEUgAAAGQAAABkCAYAAABw4pVUAAAACXBIWXMAAAsTAAALEwEAmpwYAAAPDElEQVR4nO1dCVBUVxb9/XfMYjKTSVIzk5qZ1KQmU1OVyRSR/wEVQVAWF1RcUBT4H3BFxQ3FBRdQFFFQxAU0uIugMe7EJWpUjFs0btFololrZhInk1RlmYQ7dW/bCk03dNMNDfhv1S2bbqv7vXv+u+++c+97j2EMMcQQQwwxxBBDDDHEEEMMMcQQQwwxxJCa4jPgaUnV/9xKSfD2UuIVSY0PFpX4MC9F64WvJR8tED8TFP01+Y24lxjvJMEwo6sSEPuMrMYHeKnxo2VFXykr+j5Z1S7LivatrOrgpFZKqnZbUvVTsqq/Lal6tqzoMUKbhL8xAem8AZYNeVrVfyX7JkRLqrZWVvUb9TB6/VTRv5dU/YSk6JmyqvszvXtzjy9A3kmtRUUbJan6e7Ki/+yMIVu31eDFjnHwh9A4+Gu3WPhHr0Gg9htIr//SJZY+eyEo3mmAJFX/t6Ro69H1MQxjYh4HEZW4V2RFXyQr+n9rM84fQ2Mhckg0TJvdC1YWdofdpRFw4d3O8PW5YKj8ONAh/eFKIHxWEQJHd4ZByZqusDCvByRN6AM+fWLgKX+trtFzQVK0REbt7cW0RGndduizsqIvlVXtF1sGeLXrIEiZ2ht2lUbAnVOOG72++sOVQDi7rzMsyo+EcL0/PN3WzqhR9JuyovVjWpJ4tdHekBTtc+vO/ik0DjKye9KT39AAVNah31zoCFs3dKFR2crPljvT1jLeSa2Y5i6yn+Zr7Z7Q56ML+fGjII8DUWlDrx7pBMlpfeAJa2AUfR8TECszzdlNSYp+y9IhdAs4ItBdeNrolQ7o6fJQmm+sJv4cprmKrGrpVcHYsTnC40audFK/vRgEHWMHVB0lP3upg37HNEeRFP2spSO5iyI9btzKeur98x3h9yFxVUfJYKY5iqRoX1k68eFBz0/clS5or6HRVSf4OUxzFFnVv7F0YunS7h43amU99buLQbQIrTJCspnmDsiz7TU4uC3c48atdFIxAOkx5NHoaDGAoP46QIPFSyLhf1c9b+hKB/TKkc4QVHVCb2mAWNS/fwzs3RIBv1zzvNErbeitU8GQNqsXcWZ2OK8WAEjbITU69lrkIMhf0h2+eD/E4yD8+FEQHNgWDrEpfW3TKFXa3yIAYRdUgJBQALJvQo3OevnqoPSNgelzehERiLF/QwPwy7VAuH6sE6xe1Q2iR/aF5wPtjIbAZOBm7gVhSGHLAsS09ENgyr4ENv8sCINyQfZNtMu0ImXxes+B9LQuyI0kjqliTyjcPBkMP10NcnoNcfHdzlC+NQJWFXWDCTOioFN8/zrpeanjaODHl4Bp/efUbmFoUcsExKKmlVeBH7sJpC6TnMpZIFgvdTLnQRA03+gYmniRsfXrH0MjDT97JSKWgghnvlv2TwIxZj5wGfuAKblTrb0tHpBq4Cy/CFzaNjKGFDDCOSO6qFL4RHJH3OyDwKz/p902PlaAVNPSe2AqugJc5kHgR68DITYPxMh08uX1NrxfIkidx4HYdzYIicuAn7QV2IUnHrojR/TxBaQ23XgTTG9eA7bgHLA5x4GbfcCsM8qBm7oTuMz99DebdQjY3JNgWn4BTKs/AWbzXZd/2wCkialgjBDPg8AYgLRAQAJiZUmJ/aPom/QqFff5JKj4byu/hNelN+JffrJt/G+YZjuHNGVAAtDwegdZ0cZIir4Oc0GSot1zKOhQ9O9lVb+GKWJJ0edhUQWCZQBS5iQg3kmtJEWLkxT9LVnVv3N7WK5oVyRFm4ujyRghZfYBeVDOlC4p+n1HjftMO3Nx38thcfDb4Hh67Rw4+j6sW3aby8K4v1m7rLhFdRoN6ZiIhP4wNbMXbF7bFY7vDiPm+Oda0g3I21061InY74KCSEgc3we8owYSv2fjNyplVcurd+VLVUDE6HnAlLq+HvCEmpZ9aJOtRkVScvSUKEq+Ocuz1ZUCWLGiO3QYWDMfI6vagXpV9VvnQwRtMTAlt5sdGFLQyBpGwQxoZnZPKrBraGb6ZHkoBMRUL0eSFX2sy4DQhNglDdhFpz1uaKYuLbkD/JgNRDha9+G5gHg4VR7aqPkadHvauL5VR8l5twBC6psAYkwO5Uia3IhY/znwqVtA6jTW7lyBdVqNCYZFj+wMe/RgK/p9lwARh8+0mZySItKAT1kPbP4ZIhY9BQKXsQ+E+MUgtxtas41hI0Ec+ChNgBPu/NwejZqCxip+nOyrtOsblwAxnT0A7NE9IA6YaPfJkzqOAkHPB27SW0QOMhu+cD8Apcgmf2Rmk0etBTEqg9hgm21qlwTCrFxgbp4EIbNmlNU+ZgDsKQuvNYpyVe+eDoaZWT1t5XZcB4S5f56UPbADxOEzQParOWKsXZsUlgpivyxK//IpG4jVJTY35ziweaeAXfIBmAovkZHZpefpb3SF7PzjwM16h9yPMHwVCLELQewxA+SA4XWGr1LIcODnF4Dp+rGHbbYFiEUxIZY6sxcc2h5ONVyugvBpRQjtiYkaFm230MKtgFjUdOM4cG+uBlGbArJ/HeA0sEqdh4OQNg/Y8reB+fJsjbZWAwRDYBvuF/VJPw3a9BkI8WP7UI1A4fLutOdl/7ZwipbOvGNWnA/wPdwFgGnqsdOioFtSdLWS1ZojdmjDAlJNb58iY/DZ+SAOTgcpeFjDAeCbAFLPsSCMnwN8UTGwZw4A89W5WttXFRBMdOGchxnO2moD3PewjANu8tvALj7TiIDYUNPVo+TeuPXrgV+wFISJ88jViTGTQOo2mkAj4No9CE0Dh5rf6zwCpKhxNPLE0ZkgTF8A/LIi4LaVAltRTuA72xZrQB4GBMXXgUvfBUJcnmtZTWsQwiYCP/xNcyT6IMGGBK1HAWlKKtgBpEbAsOwC5ef5CaWULhb7zAax+zSQwlNBChlDNQOkIWNBCh0PYuR0EGJyQBi2EviJW4DNqQDGTmrZAOS+k4A0dHhujJDzBiDN2mWVGSPEM4BEZXoEEFxnGZP6/ZqAyO2GgGnZRc8myVyOss7sb94jJCOvelgaMAK4aTsbJcdjWnUNhEELrUNj1wDhSjd53KiMCyrGTba7aMMQF6kbtwJRcpvoHyI8/WqmAFwGRApLBtOFQx43LFMP5ZcWObaYi5gEQtJyGjlY5W9afcNB498BU+FlYLOPUgG6OGA+yO3r5NxcA8Tc4FHAHtnlcQMzjuq9M0Qy1jB8dCoIk7PrJkdR/QfTKMLEHC4QMUITe84wLxZDJ9C2B4fAjhoH/IIC9wJC6psAwrScakxqk9OvzxGvhnyXLeOIQ9Lp/5muvAd83nKQ+k+0Sza6pB2GgJiSCdzOrcS1IdvhfkAs2jYRhNS5wB7bSwbwOAj3zwNz8xRwa9fS01iboSyAVFXTJxXAbS0BYeZCEJOmgdRllHPG908AqXsKCCmzgV9SBOz+HTRCq/2GOwFBAk7qNsX2cAxPJgKQ270VmDunGxUE04XDxPiikfEhsTmihxZR4qw2QGzq3TNgOneQCE324A7gdmwBrqwEuG1lwG3fQu+xx/eavUUdbLPbAaFS0s13gZuyg0i1Wp+UvhPIR/OrioE9tItYX1s5CqcM/8VJMH1wgIyBzDGyxsgK220HAoF5//yzNdYADgPi7ofH7YBYoorSu8SIYqGDraoOewai3PagNBBHzgJhfBYIU+aTi+Dn5Zvp+Yw8+ltIzaLPxcR0s/sJGOyw60BGFmlv04rLdhdlLQ+QqooFBrjLVVsMUnCK+ydGtS6gE2mHFj9yjTmPb6fQ4vEBxHpVWniJKkDQQJhLx5DRbhGCs9p+GM1juNjiU8to4WUv91AbIBh9OeLz3a3s7rcaHxCbuvmuuYgh9wRwc94FbuoO4MeVEGiouGlTGLwc+BHF5vdGraNkDzdjL7DzjpgXaWs/cyePBMKELKpGaTQwDu+mvH/TAKQJqGAFCI2UsJHAF66igKHBgKgop/nQxjrHAES25wrbDQYxeRZw69dRmOuSO7t5kuoI+JyCutZDBiCyZWR0SCYKvtYVdtxkivb4+UsofMdCDVw4cttxDVIG3KYN5uKNgkLzYjJ5lpkZqGXFb1XeagAiW6KsvrPBVPwx8MnFbq00sadi70wiHt2bU29Bc4hYNYWLNPnCE3TIAVaQuKNOC0EWB2QDN3k75UIsv2UAUuYAINa68RaYCs6bS4HGl4IweAUdtoMGtpQEkeJrLJHFEDy5mI4WwRJZPBjB3ne7DEjVQzAtFERzVSFxmWOANKC6AZBHx8TyYzZ63KhMfXXjzWoTarMFRFb1aQ+/wDcRuIz9njdumZNachuEgQuqT7LNFRC8KYduF7B8iV8iraKZTbc8b+gyBwxQeNm8hcE66onK8Eh78NCdR+3Q/lO/mxF8ElTrw/gxdYmEovUhYU1FTcXXqdbWLhPtn9T4c2LpPcrXP2yDol9g6it4toes6p/aPEYvZQNFJZ4Ggdl0C9i5hykHYoPMrJQVLV9StX89Wp0PJYKyMXYVo6sS+82xbtMkxuWLvhQt3971RlgNjiEim3WYFl0NDsDmu7TbCvdd0D4P+yvvG5Kih9BoV/Se1u2XAkcCP2oNfZc790jSvsfMgxQe17CVoh9nQpMlxh2CV945cuUR7g3HOB07S9vY5h6hJ8Up1rbkNoHL5r4P3PQ9tLkUT2SgBZyNzZ3VVNE+llQ9wXqDvuijRdirFcB8Dq45zNT+MTCtuOTQfIkuEnMx1MbkYlqn2F9gatvw6kDG7eKd1BqvxavPpWDYWNpjETSS0sFYDyV2nWJ+3XF0vc9txK3GeJPOgzNF7F4K9oSivyCr+hJZ1X5y6LsDhlPYTPtBsPwnIs3cVmynv4PZTEW7gnc1Mo12bR4eSaTqa2RFu24+08M1+kF2rJM/SIp2DI9EIhCcPK7iCd8hzz94qE7Zu1vLFTXfGqevlny0Tp69Nc47qbXsq7XHa/VkRS+SVe0dWdUv1eXmaunYHUnRjmLnzGsjbYCXqvu4zQ8/eKi81Pgekqpnyaq+k4IYJ0Y+nq2FcwO2EfuN93Y1j4sv/bSn8HAvOp3NN7HNw6tXfRKi8LXsp/kKPvF/p9PavJOe8+xFXulsqzaxL2J78OZSbJ+XrxaJ7cXDzrAPeI0g9slzbTTEEEMMMcQQQwwxxBBDDDHEEEMMMcQQxmPyfwJjO5L/od75AAAAAElFTkSuQmCC;" vertex="1" parent="1">
          <mxGeometry x="110" y="80" width="100" height="100" as="geometry" />
        </mxCell>
        <mxCell id="ViMXjmIDIxy4mERvNpGP-2" value="" style="shape=image;verticalLabelPosition=bottom;labelBackgroundColor=default;verticalAlign=top;aspect=fixed;imageAspect=0;image=data:image/png,iVBORw0KGgoAAAANSUhEUgAAAGQAAABkCAYAAABw4pVUAAAACXBIWXMAAAsTAAALEwEAmpwYAAAMDklEQVR4nO1dCbRVVRn+HvOkBkIMGWmgIFmJZoONAllYViSGDYplgimBBkkSUSqFKbrUBrHCGESUCMmMWQQNcCg1SnikmIrMCiqC9JB3W//y22t9a3eGfd99vvvu4Xxr7bXuPXefc8/5/7P3/ucN5MjxFuBkAOMAHJZTt3HgMQAFAKPLfSM53sRTZMgEfs9RZjxNhvyo3DeS401sJEPG83uOMuMZMsQW9hyNAP8hQ64o943kAPoDeJkMmQfgiJwo5UFvAHPICG3bAJyRM6VhGTETwBsRzHCtFsBkAC1zxvw/WgO4BMBxJRCnCYDTOSUdFMI/B+DbALbw+50iAlurBjCgnphyNID2yAAuIXF2ATipyHM7AbjcI7K1zbxuC/Z7QTT1dgBu9frfC6BvCc8wlCPSpLkqVDjeA+BVEualAMIcBeAiAH8BsN8j7HoAIznqFJv5+/fk2KfZX6exBQA+xxEXim/KqHwCGcHHAOzhQ70I4EQeb8o1YQiAawD8nYRTJhhTZgP4VMLb6aasy7zjzTmS3AhybROAX3EaTJLKLhBm2PTXDRnCxwG8xofbCWAhgL0xi/J/ASwBMILTVhq28rxLY35vxVG3Nub/nuH9mNQ2HcAvAEwSZthI64oM4pPCFG324OtIjCF10CW28TqjAvqeCuB6MbektScBdEGG8U9vXr+oHvwY23k9W1+KlZzOAnAVgN9RinNKpmtues0kWsYocseXeN0dvJZNcaVgRMQaZiM2s2guDzoFwD5+3srFva7YyevYAl5XjBRm/IM6jn2eiIzDMcFk+88AeJ3ftwDoVeS13gVglhDSpLRj63BPl8k1TLTtSLG7wOtnGm6+v5jfB4q+sTmQoEawnwszte3h226jMQSj5dzHARzJ4zfx2BpkHLv5oLaYO5whTHkBQM+Yc48BcLMnLpvUdiCCMdVcsE3XicP3pb+Nrg7y23k8vi/LNrH2QgAbGYozqX84xa0Hj78TwLcA3O/ZsWpoIukqktEkmWrU3nUdp8d3AGjD646VPn+LsFP1kt9NVM4kTpGHjFrEvyhM2S4mEW2vcjqx9cPhFf42TJi7OkG30KnukRijoVkFns968MQ4PuDuhDl+EN/+KM39fABtI85xtrILveMf4ujYEMOYZwG8LeF+bxHlMJN4hA9otqmQhb/AOfx9Kf2dncxM8XEwwt/jMcQs0EkYkGUF8QPycF9J6ftKhK1JpygfzhxjxsA4XCnXU4YnmUWacBRZv6nIGNzb+WyASLqDfZeIBLWRC3wUnNRlpvIoTBQGPAjg/fLdjJ5JGM9++7NkYBwoileaeaON9DWzxTnirn2a/pI4ZdPWGB8/E+I/QAdWlUhmP0i5nw4yJdqaUvHoIP6IteLli8OZQkCnJH5NmPIUxVfF66L9K66Ra63wBIK7i1D8rmXfA/VgdysrmgFYKg9jYm8alrO/WYUVXxembPCcRU6pNGXOJ2KB1/SlM6f4HaTCiRSBYKeMsmI8jo0GdtO/F6KoezUOI6R/1HpwrjClWuZ0p7vY72DEibvOMlEGFYeL8GCGzjQMl2uG+F0aNTOmBZxzmugfyxNMHkM9T14XOe8bAG6Q/10S4X9HxCjanyLFgevOfaIXmY5TEajymHFnij0JNGvsFVN81yICD570Prv/XZzCDPB/3Ci5L2AqOpq6i5MWnSGyUeNiIcofuI6kKV9uytkB4ITA/9EABL8tpB8dRU6TowIlRve/M9CIMIoK1i6v1XiGvY0pTX3sW2joC21R/nmnaywNaCZpzRUC72GgQ1pzetJBKoy3ek2FiwbDvQnGu0O91VLfaVB0o+1oGNtomrT/Kjc2g8eS2jLp/wR1h5B2rfhW/DY34q3VNl3e9jVy3taUkXE3R9Z+GSHLIkaemWkaDXrLQmkKYfeU/keQEQUqeH0C/qMJo0Ti3tDHPGdTHFrRS1igtv+RgHPGFik9NpqcDfcWrQsYvl0Z0VjgG5bGjNuEKPM9MVf962nB0c5Na+ecHfBc58n1V8foN40Wg0SJs7BNBIiyBTYz/sUxY5o3NbWW72cxYMF9fzTB39FDBBCbwtJwqvRfXykir4/r5A202NwkNJPUtCgjXlOuSY7Yc3iOhhZ9OSJw4eGYSEinK+1k0EQSjhTv4WbqIxWJ1hKB/lBA/6vYd7sXWG3MuN1TNp1+00KO26iMCmB4yGNKa/Ey/jDgvqaLPS7NXN/oMUgIY9HmSfhEhM/dmHGHHL/D0/w1GvJLCQvwatqvwH5u5HYLMOm4dePHyACqJOrc8jOS0FbWnXM5CmYLUW+PMMO0kt8tSCLOj29tFeOIr5YIxVC3c3WA66BiMEyGfOfAMhlXArjL02mibGK6qH8hxevntPjFgVGJA+W8TCWSthcxOM1juEp0EpX34wyUbaSfObfiMCFCX0nzAC4RvSZzWMCH+1NKv1ke0XbSjesC56KmOdf38ynXnuRd+5cJfd8u06c5xzIHJ/XsTnjbW4iHMaqZkvldWZxBpdP9bvmDilM4XS2iuOqnGqxKUO6+wz77s1qH68NCiF4xzLjHI/5ahgD5sbs7GBTXhMTSeb4ZiRmXvua3ZTF+k1mBgkjFop28oYO930x0/bMQaYqnh7Qised4PpAHmOVbkPJMrpiZJgTNp74xmGl13b0AiCjP4r9EuMgsnosIvWnpBUj/OiUX3IyPK6W/H1Tn9Iv5tA4keQE1EGKxOLWay6j8KjKMh/mQlnQJEmCht8hWBVyniqK0i8fSZiaOfkXc0+QIT+PhcqziNfMQp9YMThGL5MFvrkOVhJO8bNrHI2K2QqCBEQuovbvvZj3ILJxBb6XI+NZuLKFkRRe5jlVvqAuqeA8qfbnPtuZkFj+JmGLs7SwFHeRapRSaqeIo9e/PgsQzCxV9C4w2eZDTxExaez9bZOGAjnI9c4wVi240ep5Pbf4luV5NTD5KJtCWaWkhukENxeBzAgx6neS8foEMGE4RWtMS4tq8IhJIK0oHWemJttdL0MFvuKZsiSDIJtYwaZ1g4nB9zVQehRaMeFyeEMu1hwLCGvo/1OT/xywx5TAqcIXARPzujPnShbVAHWZIxOLfWfr4XslWdOluipgql3GKGhATKWn6y2+LDPqrCEyRh7I1ohh8kH5ztUEt8nJEusRIREbof0eYSYam5BX6TJkq51tQRMVjDKeJ8SUKA2uEMLvF99HV0xlacApUrf2uOlSziwoct3UtE6iPod6EFRr2CqGvZpqbegxXyPfqetIjbJr8aFatvqWiFy3BGsDgPrvABRd6FBpwnaMepLa5MdJSLRXQHA2MKpYWr/FEV9NdcjSS/Pd+OSfKj2OEISaN5Sgz3i0MMb0lR5nRQxgSknad4y1Gz0PFVF4pOFYYYtvn5SgzjhOG1NU8kqMe0UsYUsoOCDnqCb2zXGSsEnF8QCpcjgZEH2FIWinAHPWAKxjWeWIAQ94b0+dk1kGxgO8cJeJREtsiDBWnRexm8DL9374r98ZDpUp1Q+AWCZruxGCHmQHRItPoD+ksxccy4YItN/pI4HO1F72yjinQ/dnGePtO3S9+9ZoSd4o75NGEa0IzxlH54TuTY1zDzbxY3QLPvYC/nVCpJfrKjQkk5lIGUJ/tZeOmYbZXUKC7FLrJ98ytA0YKQd+Q3JIDgbulHSU5gs97O4Pqzgw5isCYiD1CrABAsfkoru1L2MktRyA6843eIBGEoXCBEOuZ4BOyBV+OQEwlcS0+NxQriigDm6NIXErivhZQbRTss7ceNgvL4aEF43RVlDUxOA0uz7zAMlH9s7x1UUNhuOziqW1nSm3fblKhTts2jpaK3/G5HBjrEfNFrxrD2pjtK7pLjnmBOSeaFZWZMksNjcul4nTfiHJJBdYJnsgpzRI+f+pVKrUKqQ59JevXCgzkqAO6y/RyutReD221zMzSiMa4TWFyBKI5Cwr4xK7mNtuuFnuBU9NNEYk6tUyhS6tBnyMFTb0iZpukKmmtlPTrKIUsB0v/27yt9yx3MDcsloBxXuHLdhwx1ZIreAOnpH50RNXIhjBNWSZjXpH7mOSIwYUcCVO96aan7J4W1TZ6u+Y0Y1ZtLXcNzVEC2iWkQ0/2pKpd3LQ4rg5vaLJnjhLRLStb2v0PqYSnl/MlVLcAAAAASUVORK5CYII=;" vertex="1" parent="1">
          <mxGeometry x="-140" y="140" width="100" height="100" as="geometry" />
        </mxCell>
        <mxCell id="ViMXjmIDIxy4mERvNpGP-3" value="" style="shape=image;verticalLabelPosition=bottom;labelBackgroundColor=default;verticalAlign=top;aspect=fixed;imageAspect=0;image=data:image/png,iVBORw0KGgoAAAANSUhEUgAAAGAAAABgCAYAAADimHc4AAAACXBIWXMAAAsTAAALEwEAmpwYAAAGrklEQVR4nO2bW1NTVxTHeen0K3SmH6Mvfel0pgMtb33o9EGYCaOk0Blb2lorolZrvaCivVAqUEJAMYCArchFkJuiwAkXRZAIqFwKBBQET5VbuKzOOm3w7JOckEjizt5n/2fWg669T07Wb++11t4ZIiKEhISEhISEhIReQZLTDmyZdIIr0PQDajc2BPrBtBsbAv1A2v2yoblBPiHQDqzkp8lLj/mEwBIAmUcIrAGQeYPAIgCZJwisApB5gcAyAJkHCP4GwOYoCsikIM/XA8A8BB4AyCxD4AWAzCoEngDILEKgXVylLRZh5iHwCEBmCQKvAGRWIPAMQGYBAm9FWGYNghEAyOEMwSgAZB0ItONvKACyFwi0489MEZZCZLTjLwDQFu0VKIkdQD8IkpFTkMmyB4xsEbRFOwAmAYB+EExiB9APhImS0c5AIgXRFq2Vt/PCYdhbdhqSCo9CXG6y2AH+BO2rwmNQ3XMDJuYew9LKMiyvumD6+SzcetAFh8szNp2/I28fFNurYPLZNKi16FqC6wPt8O3FEx5z/rpdBy+WFjYMP1vv+XV9LcTYh09G+UlBP1/Lg0XXMuhpHdahpKPa54ofnhkHX1pYXoST1TnEvBPVf3iM21Wc6vUznHNPiHG1927yAQBX9+raKvijzKZCr8/om3jg1/znS/PKTtvYNdYUZYds9hkIGBeBWqeuWvgAMPrUSXyx3vEBKGgrh0tdtdA/OUT45ub/gfi8fSTAKxnEmPX1dbjYXq3UgDO1VngszxD+iu4mYn7XSB/hr3e0etmh+cQYTJGY8pgHgKtfrTujDsK/3ZoCY7OTxJi0mlxiTHF7FeG3D90l/Keu5hB+TCVqv/XWJcKPC0L7npV3rxNjbmvek1kAZZ01xBdLry/Y9MuXddYS/oruRs0KbyT8n+UfIPxY3OMsLzujb4qPE/619TVIPHeQeMbg1DAxJv/Wn3wAwNWqFgZDO8YmVfgsfudbLxP+8bkpjzS1mXnuspf5HZ+1srriV6FmDoDD+ZD4YgnnDgQUOJNlD+wuOamsWrWwIzp0Od3vZ1T1kLsM21O372jFWRLw7JTfzw17AENPxja+GHYZgQbf9L/V9bWCN3X/fR+OVWZuOj+1KpuYh12V24cFXS08q/ADYDo4AHZYU6B9qAf0NDg14nNHaNtRPJNst+5VfFhw1UJYAoDFM4hYWHObS5XTszfhWSOj4YJu8DpHeonxBy//qjwTzw5uLbgWlc6MHwBBSkEmlWGAcm6UgPMZeXJFuVZXILkszes8680yYiyeRVLKzhD/1zHcG9C7MFeEzfn7gwLBhDsiNxmyrxfD/PIC8Rk3Btq9jv+66BgxDjs0LRTcYVwB0LahSYVHPMacbbTB8PT4hhXZK4m0g/c7alP3+O75amGK8qcdnZ1/BjcHO4kdqr7G4PIgdqTid48x5XcaiDGlHTWEX7vCv7D9SPjx32qtrq3pvo/20Ie3nm6NzkwEvAuZu4rAYPvqlFDHq7J8+tPrzxP+5NI0wo+FVO998Nl60p6wuQCANjIzQVxy4cn3eGWWcpHW1G/3SB/aLuRC2xWPMXiSTTj3vfKDjPay7f7kI913wWcjIG/CAxmXAH4o/w1W/LyOzvDSRmKg8YcUf5XZVOTzfbDT0QpTkftcwB0AtJ+u5emuPHfexrZQb/53JadgSnPt7E3NAx0eRVpruZrOByU96g44+EwBQMN0gcd8vGtRfpJccSm9fIOjTbd31956Yg15+mLOI4D4HEtz6abBR8NOR/vjC7az3AMIZv+/qzhVydnYVWF/H+rPjIoxB2RcAzBRMAHAIgCIHRAjUhCIFCRqAIRVEab9BxLSa7KwLcK0AyMJAPSDI4kdQD9AkkhB4f2H2rYtzme+BtAOoE0AEABCIrEDzGykINYtivUawLpFCQB2AUDsADO7KYh2G2nTGbfz9KGA00uwLDLGnGV4AAX3CiE2eTcNAK3R0V++aXgANkcR5LTnw8eJO19n8Cc/MCW+LVKQ42Uq+qUuC6JNCaEP/rZ410ex5vdeew1gwTKvFIQcwIcx5oSgBZ83AJLTDinpp8O76PIOoGWsDcz7D4Rv0eUdgOS0Q11/E3zyeVJ4Fl0jAJCcdihtq4BoU2L4FV2jAJCCVJSDXnSNBEDaYlEOSdE1GoCWVy/KoSm6RgMgvVpRDl3RNSIAKZCiHOqia2RFxcbHUS+6RldkjDmbatE1ut5JSHgjclt8M7WiKxQR8f6ncW9FbYsfp1J0hf5TZKz53ciY+CVRdCPoCQvuVovuv9tBL/QY6ivXAAAAAElFTkSuQmCC;" vertex="1" parent="1">
          <mxGeometry x="112" y="190" width="96" height="96" as="geometry" />
        </mxCell>
        <mxCell id="ViMXjmIDIxy4mERvNpGP-4" value="" style="shape=image;verticalLabelPosition=bottom;labelBackgroundColor=default;verticalAlign=top;aspect=fixed;imageAspect=0;image=data:image/png,iVBORw0KGgoAAAANSUhEUgAAAGAAAABgCAYAAADimHc4AAAACXBIWXMAAAsTAAALEwEAmpwYAAAETElEQVR4nO2dX0xTVxzH77N2mMDshcxolixAywMPRsuc82aLpcyASqtx2USzBLrFN4rBRKRoMMZJiKCEB9GYLDLN0GkW/5JI0sK2pCjZhptRGRExKI6R+G+0hfYst2asB6gW7oXf0X4/ye+F8+Pl97nnnN/5JQRJAgAAAAAAAAAAAABgFjEe3LjWWLeh01jnCBrrN7C5CJO3ak4i0+MOZHqrfBntlQVCfkRyvb1gropuJBDAyWivLJREw1jvuJYoAkwed6ckGgvrHYFEEZDpcQck0aAovpFqB3irmCQaEEAMBBADAcRAADEQQAwEEAMBxEAAMRBADAQQAwEzYF7Z8iJDqaXb4LKMGVw5jDTKcljSjpUsed+axJgFzSvN2UJedNfUMR0Jr62AF18+fbENU8X2FcxQZQ3HE2ktJSShXYAIx44r9nFk2G2NK9JOl5CEDgIEKLTrJQEBEJCGHWDFEYQjqAR3gAGXMC7hNMouyFS9jj0PjLBoTl2/HDP/7fJV7N7wQy5/35Wj6IK0tKH7W49xBQ2FQyynZvOUue7zjVzun3/1R6SgDdUgYOEOhfUNP+AKe/bXq5PyFlVY2fDzx1yeo8mFd4AeD7Gt3+ziChsOh5ly8Asup8Fzistp6WrFQ0zPl7C35zpX4Eu/d4yvmfcWMv9ocHztycgzlr6nAAL0FLDswGdsNDTGSfj4UHFk7buuVu7n27+vxShCjy5oYjT9eIYrdNstH1tRWxS5mP+jq/8mW6BONTEL0l/A4krbpIu2d+g+1yEpE+6GaQeGcS8vkOtMDYvFkY7T2ooPAa8ukHq8dA/cmVT8wSd/s3cqVkPAq9D6harvguhjJ1rAogqrZgFyrjkUTyQ3FpIEuYC6thMxj6DjP5/TLsBmjiuSG+0kQSrgg9otXCt6Y6CH+e52cw+03IavIGA2BKhnv9piRuNoKosUPJrbg30spfxD7AC9Bez84RBX6J96fxlfu/xHB7dWfekIBOgpwFy9nj3z/8MVefVh5/i6peZz7jHmHw2ypV9/ijtALwHq3CeaCze8k3KaOy9yOe09XeytsvdxCWsVUNy8myvsWCgUmQtNtUv8UQM5lS9PVkOAFgHq6OHR02GuqCd852PmH/ac5HLVscW77k/Qhs5UwMRjJTAWZFl77THzl1TmsccjT7nf+fbaRQjQowuaq5DxEIOAZFFfwtgBdgiQE3kWhB1ghwD59d8BAv+BhsuSAF2QwH+ilLRt+ZsvYH6pZTN1oQ0xImVT9lCqzdQXT7y37SOS0CzgfwmW38Q4jiyRLz9lUzZLzTPHHRlOhSQk0ZhO0VJ1DAiAADHADiAGAoiBAGIggBgIIAYCiIEAYiCAGAggBgKIkW2mQKLMgtKdinj/wEG2mToTRUCGU/FJoiHnZuUnioB0p7JeEhE5L6tAtpl8qXmm4JsmIN2pBNUvP7NYyaeuMwAAAAAAAAAAAACQhOJfGgzT6TFzYPwAAAAASUVORK5CYII=;" vertex="1" parent="1">
          <mxGeometry x="112" y="300" width="96" height="96" as="geometry" />
        </mxCell>
      </root>
    </mxGraphModel>
  </diagram>
</mxfile>
